Coordinates
version=1
nRows=26
nColumns=22
inDegrees=yes

Units are S.I. units (second, meters, Newtons, ...)
If the header above contains a line with 'inDegrees', this indicates whether rotational values are in degrees (yes) or radians (no).

endheader
time	pelvis_tilt	pelvis_list	pelvis_rotation	pelvis_tx	pelvis_ty	pelvis_tz	hip_flexion_r	hip_adduction_r	hip_rotation_r	knee_angle_r	ankle_angle_r	subtalar_angle_r	hip_flexion_l	hip_adduction_l	hip_rotation_l	knee_angle_l	ankle_angle_l	subtalar_angle_l	lumbar_extension	lumbar_bending	lumbar_rotation
      1.45000000	     -5.46401294	     -2.21299118	     12.63715501	      0.95672925	      1.01072818	      0.20526594	     15.67748818	      0.76516229	    -10.31050042	    -20.87441148	      7.15156839	     -2.63018233	     20.27198414	     -6.55534233	     -1.20204638	    -37.48551051	     13.69116313	      6.48586487	     -5.90736874	      1.19022393	     -0.22203431
      1.46000000	     -5.45978442	     -2.11479655	     12.56644943	      0.95428542	      1.01108016	      0.20565834	     15.79403007	      0.67206736	    -10.21945154	    -20.82926019	      6.96735661	     -2.58916700	     20.40142227	     -6.57142529	     -1.23810503	    -39.38251088	     13.52357469	      6.51055862	     -5.86622424	      1.02124816	      0.01452147
      1.47000000	     -5.46356031	     -2.02595948	     12.48579368	      0.95180331	      1.01138224	      0.20597383	     15.92002185	      0.58107951	    -10.13837160	    -20.77883343	      6.79815253	     -2.52762207	     20.48247655	     -6.57858656	     -1.21976867	    -41.24986925	     13.26042912	      6.65436665	     -5.80113583	      0.86406760	      0.22444331
      1.48000000	     -5.47625128	     -1.94946125	     12.39988086	      0.94928532	      1.01162013	      0.20621093	     16.06137235	      0.49403657	    -10.07500664	    -20.73215269	      6.64841609	     -2.44707119	     20.51584457	     -6.58658671	     -1.17378661	    -43.06392109	     12.93278845	      6.88897842	     -5.71224395	      0.72041549	      0.40672604
      1.49000000	     -5.48977052	     -1.88633700	     12.30993849	      0.94673558	      1.01180647	      0.20637663	     16.20752417	      0.41611514	    -10.01749259	    -20.68551558	      6.51105800	     -2.35818645	     20.48829975	     -6.60600062	     -1.12183871	    -44.79471347	     12.56270248	      7.14834363	     -5.61135796	      0.59185394	      0.55522926
      1.50000000	     -5.50261768	     -1.83900852	     12.21786377	      0.94414758	      1.01193414	      0.20647098	     16.36159841	      0.34970113	     -9.96396662	    -20.64581579	      6.37988584	     -2.27105740	     20.39856041	     -6.64889945	     -1.08528852	    -46.42365519	     12.18875957	      7.38045040	     -5.50034823	      0.48131894	      0.66984511
      1.51000000	     -5.48577830	     -1.79259958	     12.12848594	      0.94155814	      1.01206574	      0.20647031	     16.48117285	      0.28201742	     -9.93841852	    -20.60190158	      6.26252842	     -2.21272696	     20.20274891	     -6.71398872	     -1.08834296	    -47.91811773	     11.80055317	      7.50507692	     -5.41124609	      0.37948251	      0.75852453
      1.52000000	     -5.53036485	     -1.80183727	     12.03881398	      0.93885860	      1.01200462	      0.20641204	     16.70219296	      0.25620549	     -9.85767431	    -20.59794055	      6.10812005	     -2.11691776	     20.03724652	     -6.83870437	     -1.10479130	    -49.30897802	     11.52417210	      7.67486367	     -5.23618973	      0.32959790	      0.80047193
      1.53000000	     -5.51516750	     -1.78853772	     11.96305502	      0.93615606	      1.01200940	      0.20624821	     16.85447799	      0.20783885	     -9.82329735	    -20.59554405	      5.97644860	     -2.06603845	     19.72587393	     -6.96752020	     -1.15844262	    -50.53104890	     11.23884225	      7.72727723	     -5.12610674	      0.26487882	      0.81033662
      1.54000000	     -5.51160260	     -1.80873929	     11.88996370	      0.93337970	      1.01192862	      0.20602269	     17.03899459	      0.18799788	     -9.76437586	    -20.61196230	      5.82098673	     -2.00730764	     19.37784463	     -7.14599218	     -1.23421224	    -51.60952548	     11.01877288	      7.75662692	     -4.99072635	      0.23494134	      0.78773765
      1.55000000	     -5.50373362	     -1.84884169	     11.83135995	      0.93054141	      1.01179008	      0.20570340	     17.23481896	      0.18154321	     -9.69654334	    -20.64944213	      5.66137061	     -1.94625860	     18.97265106	     -7.35629070	     -1.32321019	    -52.53293328	     10.86793133	      7.76105119	     -4.84613111	      0.22894676	      0.72825777
      1.56000000	     -5.48713203	     -1.90674383	     11.78594346	      0.92763137	      1.01161001	      0.20529942	     17.43337522	      0.18822536	     -9.62670853	    -20.69782649	      5.49874658	     -1.88195386	     18.50506974	     -7.59107857	     -1.41612073	    -53.29124018	     10.76787132	      7.74069036	     -4.70181808	      0.24439255	      0.63580671
      1.57000000	     -5.45704806	     -1.97211940	     11.75970976	      0.92464056	      1.01140040	      0.20480441	     17.62996021	      0.19507137	     -9.56676430	    -20.76346274	      5.34044736	     -1.81968120	     17.97110670	     -7.83224968	     -1.50112823	    -53.87834243	     10.70378215	      7.69395538	     -4.56541430	      0.26952327	      0.50727050
      1.58000000	     -5.40810376	     -2.05139572	     11.75143822	      0.92156596	      1.01117181	      0.20421620	     17.81110001	      0.21236189	     -9.50768161	    -20.82620508	      5.18575680	     -1.74839769	     17.36773542	     -8.08199717	     -1.57396529	    -54.28985150	     10.66032945	      7.59242683	     -4.43921630	      0.31568215	      0.34274425
      1.59000000	     -5.36024101	     -2.12350592	     11.76554447	      0.91835568	      1.01089548	      0.20352617	     18.02231141	      0.20298899	     -9.48811086	    -20.93781972	      5.02558147	     -1.69232146	     16.72003196	     -8.30100380	     -1.61515560	    -54.52862823	     10.60710656	      7.48753566	     -4.31248192	      0.34934420	      0.17264557
      1.60000000	     -5.29269504	     -2.20084770	     11.79614488	      0.91502046	      1.01060515	      0.20273103	     18.21620251	      0.19395013	     -9.46694021	    -21.04248297	      4.87170148	     -1.62978139	     16.01257841	     -8.50759464	     -1.63401880	    -54.59971321	     10.55279049	      7.31912968	     -4.20621525	      0.39921347	     -0.03841945
      1.61000000	     -5.23169524	     -2.27091450	     11.85258285	      0.91153280	      1.01025869	      0.20185301	     18.43821517	      0.16240931	     -9.46077303	    -21.17901828	      4.73468426	     -1.57778319	     15.27957971	     -8.67863445	     -1.61840121	    -54.50759289	     10.47828379	      7.15306558	     -4.09323678	      0.43079436	     -0.27358218
      1.62000000	     -5.18570975	     -2.34287374	     11.92037828	      0.90786302	      1.00983282	      0.20088423	     18.70343101	      0.11662881	     -9.45962716	    -21.34941282	      4.60126578	     -1.53864500	     14.54166792	     -8.82111293	     -1.57234022	    -54.26981217	     10.38585302	      7.03836330	     -3.96537268	      0.46188508	     -0.52327153
      1.63000000	     -5.13755554	     -2.41047188	     12.00604156	      0.90401838	      1.00936103	      0.19982607	     18.98636297	      0.05388060	     -9.46719907	    -21.54208028	      4.47168448	     -1.50503679	     13.77921807	     -8.93183617	     -1.49450678	    -53.88199007	     10.26030852	      6.95495140	     -3.84668080	      0.48509358	     -0.78611244
      1.64000000	     -5.09376507	     -2.47365728	     12.09582063	      0.89998509	      1.00881697	      0.19870044	     19.30350163	     -0.02578744	     -9.48468282	    -21.77144681	      4.34499580	     -1.47917355	     13.00671235	     -9.00928474	     -1.38786786	    -53.36161455	     10.09390444	      6.92413614	     -3.72935686	      0.49722958	     -1.05413966
      1.65000000	     -5.05429766	     -2.52675656	     12.19002958	      0.89575529	      1.00819612	      0.19749738	     19.65363525	     -0.12954867	     -9.50986011	    -22.03674162	      4.22648677	     -1.46057033	     12.22518909	     -9.04799164	     -1.25593979	    -52.71153337	      9.87224587	      6.94811308	     -3.61855548	      0.49547375	     -1.32276517
      1.66000000	     -5.00692724	     -2.54981865	     12.28729491	      0.89135034	      1.00751617	      0.19622279	     20.01679131	     -0.27251919	     -9.52730624	    -22.33690737	      4.15283140	     -1.45168186	     11.41437737	     -9.03138505	     -1.10682176	    -51.92899682	      9.59749962	      7.03094166	     -3.52919479	      0.45758074	     -1.60523144
      1.67000000	     -4.98104404	     -2.57283330	     12.37671089	      0.88672193	      1.00671052	      0.19488835	     20.44761472	     -0.43407569	     -9.55750786	    -22.69359905	      4.05116913	     -1.43994179	     10.62548513	     -8.98234045	     -0.93341257	    -51.03733660	      9.24532468	      7.16136856	     -3.42903078	      0.41299507	     -1.85910617
      1.68000000	     -4.96350937	     -2.57847308	     12.45968068	      0.88189692	      1.00580602	      0.19348552	     20.91992443	     -0.62705875	     -9.58774460	    -23.09530577	      3.96021575	     -1.42515920	      9.83511870	     -8.88302135	     -0.73309015	    -50.02710034	      8.82491574	      7.31752810	     -3.33365420	      0.34250698	     -2.09640906
      1.69000000	     -4.95943870	     -2.58880115	     12.54298603	      0.87685273	      1.00479413	      0.19200235	     21.43739958	     -0.82753171	     -9.59791410	    -23.52577801	      3.82605680	     -1.40197688	      9.06503605	     -8.75071097	     -0.48243969	    -48.91143929	      8.31750242	      7.46275246	     -3.23449243	      0.27595150	     -2.31987631
      1.70000000	     -4.95032943	     -2.54877242	     12.60768103	      0.87165272	      1.00370977	      0.19044429	     21.97335048	     -1.08904590	     -9.61140063	    -24.00184394	      3.76448181	     -1.37327034	      8.25437604	     -8.53827496	     -0.22119419	    -47.65394906	      7.82082658	      7.60363403	     -3.16061100	      0.15036794	     -2.51524893
